<svg xmlns="http://www.w3.org/2000/svg" xmlns:xlink="http://www.w3.org/1999/xlink" width="18" height="18" viewBox="0 0 18 18"><path id="yuuea" transform="translate(-641 -1692)" fill="#fff" d="M643.25 1694a1.3 1.3 0 0 0-1.25 1.29v3.24h4.84a4.35 4.35 0 0 1 2.54-1.02c.95 0 1.8.47 2.55 1.02H657v-3.24c0-.68-.61-1.29-1.34-1.29zm12.21 3.52h-2c-.28 0-.53-.2-.53-.44v-1.63c0-.24.25-.42.54-.42h2c.28 0 .5.18.5.42v1.63c0 .24-.22.44-.5.44zm-3.53 4.19a2.6 2.6 0 0 0-2.55-2.64 2.6 2.6 0 0 0-2.54 2.64 2.6 2.6 0 0 0 2.54 2.65 2.6 2.6 0 0 0 2.55-2.65zm1.71-.07c0 2.33-1.85 4.2-4.13 4.2a4.17 4.17 0 0 1-4.01-5.18H642v7c0 .73.57 1.34 1.25 1.34h12.5c.68 0 1.25-.61 1.25-1.34v-7h-3.73c.34.32.37.65.37.98z"/></svg>